<?xml version="1.0" standalone="no"?><!DOCTYPE svg PUBLIC "-//W3C//DTD SVG 1.1//EN" "http://www.w3.org/Graphics/SVG/1.1/DTD/svg11.dtd"><svg t="1591935411238" class="icon" viewBox="0 0 1194 1024" version="1.1" xmlns="http://www.w3.org/2000/svg" p-id="5624" xmlns:xlink="http://www.w3.org/1999/xlink" width="97.9453125" height="84"><defs><style type="text/css"></style></defs><path d="M1146.965333 466.176a45.397333 45.397333 0 0 1-27.733333-9.386667c-4.437333-3.413333-109.568-85.589333-109.568-219.648 0-134.144 105.130667-216.234667 109.568-219.648a45.824 45.824 0 0 1 55.808 72.704c-0.597333 0.426667-73.728 58.88-73.728 146.944s73.130667 146.432 73.898667 147.029334a45.909333 45.909333 0 0 1-28.16 81.92zM47.530667 1015.978667a45.738667 45.738667 0 0 1-28.074667-82.005334c1.621333-1.28 73.898667-59.477333 73.898667-147.114666 0-87.893333-72.96-146.261333-73.642667-146.858667a45.824 45.824 0 0 1 55.722667-72.704c4.437333 3.413333 109.568 85.504 109.568 219.562667 0 134.144-105.130667 216.234667-109.568 219.648a45.653333 45.653333 0 0 1-27.904 9.386666z" p-id="5625"></path><path d="M1147.136 466.176H230.826667A229.376 229.376 0 0 1 1.706667 237.226667 229.376 229.376 0 0 1 230.826667 8.021333h916.309333a45.824 45.824 0 0 1 0 91.648H230.826667c-75.776 0-137.386667 61.610667-137.386667 137.386667 0 75.861333 61.610667 137.472 137.386667 137.472h916.309333a45.824 45.824 0 0 1 0 91.648z m-183.296 549.802667H47.530667a45.824 45.824 0 0 1 0-91.648h916.309333c75.776 0 137.472-61.610667 137.472-137.386667 0-75.861333-61.696-137.472-137.386667-137.472H47.445333a45.824 45.824 0 0 1 0-91.648h916.309334a229.376 229.376 0 0 1 229.12 229.12 229.290667 229.290667 0 0 1-229.12 229.034667z" p-id="5626"></path><path d="M448.426667 159.232H333.909333v297.813333c0 25.258667 20.48 45.824 45.824 45.824h22.869334c25.344 0 45.824-20.48 45.824-45.824v-297.813333z" p-id="5627"></path></svg>