<?xml version="1.0" standalone="no"?><!DOCTYPE svg PUBLIC "-//W3C//DTD SVG 1.1//EN" "http://www.w3.org/Graphics/SVG/1.1/DTD/svg11.dtd"><svg t="1591935278452" class="icon" viewBox="0 0 1024 1024" version="1.1" xmlns="http://www.w3.org/2000/svg" p-id="4874" xmlns:xlink="http://www.w3.org/1999/xlink" width="84" height="84"><defs><style type="text/css"></style></defs><path d="M545.3824 942.8992H149.0944c-44.032 0-63.8976 0-63.8976-63.8976v-315.392c0-17.6128 0-39.3216 34.4064-39.3216h18.8416v341.6064c0 17.6128 14.7456 29.4912 32.3584 29.4912 17.408 0.2048 31.5392-14.5408 31.5392-31.9488V115.5072c0-27.4432 3.8912-34.4064 46.6944-34.4064h663.9616c26.4192 0 31.9488 5.5296 31.9488 31.9488V555.008H1003.52V96.6656c0-53.0432-23.1424-76.1856-76.1856-76.1856H224.4608c-53.0432 0-86.016 25.6-86.016 78.6432v353.8944l-41.7792 2.4576c-53.0432 0-76.1856 42.8032-76.1856 95.8464v344.064c0 70.656 37.4784 108.1344 108.1344 108.1344h416.768v-60.6208z" p-id="4875"></path><path d="M492.3392 396.4928c17.6128 0 31.9488-14.336 31.9488-31.9488V180.4288c0-17.6128-14.336-31.9488-31.9488-31.9488h-184.32c-17.6128 0-31.9488 14.336-31.9488 31.9488V364.544c0 17.6128 14.336 31.9488 31.9488 31.9488h184.32z m-172.032-203.9808h159.744v159.744h-159.744V192.512zM874.9056 189.44H628.3264c-11.264 0-20.48-9.216-20.48-20.48s9.216-20.48 20.48-20.48h246.5792c11.264 0 20.48 9.216 20.48 20.48s-9.216 20.48-20.48 20.48zM874.9056 396.4928H628.3264c-11.264 0-20.48-9.216-20.48-20.48s9.216-20.48 20.48-20.48h246.5792c11.264 0 20.48 9.216 20.48 20.48s-9.216 20.48-20.48 20.48zM874.9056 293.0688H628.3264c-11.264 0-20.48-9.216-20.48-20.48s9.216-20.48 20.48-20.48h246.5792c11.264 0 20.48 9.216 20.48 20.48s-9.216 20.48-20.48 20.48zM523.4688 629.76H276.8896c-11.264 0-20.48-9.216-20.48-20.48s9.216-20.48 20.48-20.48h246.5792c11.264 0 20.48 9.216 20.48 20.48s-9.216 20.48-20.48 20.48zM523.4688 836.8128H276.8896c-11.264 0-20.48-9.216-20.48-20.48s9.216-20.48 20.48-20.48h246.5792c11.264 0 20.48 9.216 20.48 20.48s-9.216 20.48-20.48 20.48zM523.4688 733.3888H276.8896c-11.264 0-20.48-9.216-20.48-20.48s9.216-20.48 20.48-20.48h246.5792c11.264 0 20.48 9.216 20.48 20.48s-9.216 20.48-20.48 20.48zM874.9056 516.7104h-598.016c-11.264 0-20.48-9.216-20.48-20.48s9.216-20.48 20.48-20.48h598.016c11.264 0 20.48 9.216 20.48 20.48s-9.216 20.48-20.48 20.48z" p-id="4876"></path><path d="M727.04 647.7824v83.968h-83.968v-83.968h83.968m49.152-49.152h-182.272v182.272h182.272v-182.272zM954.368 647.7824v83.968h-83.968v-83.968h83.968m49.152-49.152h-182.272v182.272h182.272v-182.272zM727.04 870.4v83.968h-83.968v-83.968h83.968m49.152-49.152h-182.272v182.272h182.272v-182.272zM954.368 870.4v83.968h-83.968v-83.968h83.968m49.152-49.152h-182.272v182.272h182.272v-182.272z" p-id="4877"></path></svg>