<?xml version="1.0" standalone="no"?><!DOCTYPE svg PUBLIC "-//W3C//DTD SVG 1.1//EN" "http://www.w3.org/Graphics/SVG/1.1/DTD/svg11.dtd"><svg t="1591934898937" class="icon" viewBox="0 0 1024 1024" version="1.1" xmlns="http://www.w3.org/2000/svg" p-id="3358" xmlns:xlink="http://www.w3.org/1999/xlink" width="84" height="84"><defs><style type="text/css"></style></defs><path d="M934 32H90C40.374 32 0 72.376 0 122v600c0 49.626 40.376 90 90 90h260.376l-40 120H212c-16.57 0-30 13.43-30 30s13.43 30 30 30h600c16.57 0 30-13.43 30-30s-13.43-30-30-30h-98.376l-40-120H934c49.626 0 90-40.376 90-90V122c0-49.626-40.376-90-90-90zM373.624 932l40-120h196.75l40 120zM964 722c0 16.54-13.46 30-30 30H90c-16.54 0-30-13.46-30-30v-30h904zM327.156 459.58l-27.288-27.284 42.42-42.428 27.29 27.288a29.998 29.998 0 0 0 36.454 4.626c16.86-9.94 34.86-17.43 53.492-22.26A29.99 29.99 0 0 0 482 370.486V332h60v38.484a29.99 29.99 0 0 0 22.476 29.04c18.626 4.828 36.626 12.32 53.484 22.266a30.01 30.01 0 0 0 36.454-4.634l27.29-27.288 42.428 42.428-27.288 27.29a29.988 29.988 0 0 0-4.626 36.446c9.946 16.866 17.43 34.866 22.26 53.492A29.99 29.99 0 0 0 743.514 572H782v60h-123.032c2-9.828 3.032-19.882 3.032-30 0-82.71-67.29-150-150-150s-150 67.29-150 150c0 10.118 1.032 20.172 3.032 30H242v-60h38.484a30.006 30.006 0 0 0 29.048-22.476c4.82-18.626 12.312-36.626 22.25-53.492a30.012 30.012 0 0 0-4.626-36.454zM602 602c0 10.274-1.78 20.42-5.156 30h-169.688A90.326 90.326 0 0 1 422 602c0-49.626 40.376-90 90-90s90 40.376 90 90z m362 30h-122v-90c0-16.57-13.43-30-30-30h-46.344a269.082 269.082 0 0 0-10.696-25.688l32.814-32.804c11.71-11.72 11.71-30.712-0.008-42.43l-84.852-84.852a29.998 29.998 0 0 0-21.21-8.78 29.998 29.998 0 0 0-21.212 8.78l-32.804 32.814A267.016 267.016 0 0 0 602 348.352V302c0-16.57-13.43-30-30-30h-120c-16.57 0-30 13.43-30 30v46.352a267.016 267.016 0 0 0-25.688 10.688l-32.804-32.814a30.016 30.016 0 0 0-42.43 0l-84.844 84.852c-11.72 11.72-11.72 30.712 0 42.43l32.806 32.812a268.046 268.046 0 0 0-10.688 25.68H212c-16.57 0-30 13.438-30 30v90H60V122c0-16.54 13.46-30 30-30h844c16.54 0 30 13.46 30 30z m0 0" p-id="3359"></path><path d="M812 152c-49.626 0-90 40.376-90 90s40.376 90 90 90 90-40.376 90-90-40.376-90-90-90z m0 120c-16.54 0-30-13.46-30-30s13.46-30 30-30 30 13.46 30 30-13.46 30-30 30z m0 0" p-id="3360"></path></svg>