<?xml version="1.0" standalone="no"?><!DOCTYPE svg PUBLIC "-//W3C//DTD SVG 1.1//EN" "http://www.w3.org/Graphics/SVG/1.1/DTD/svg11.dtd"><svg t="1591936028248" class="icon" viewBox="0 0 1075 1024" version="1.1" xmlns="http://www.w3.org/2000/svg" p-id="14535" xmlns:xlink="http://www.w3.org/1999/xlink" width="88.18359375" height="84"><defs><style type="text/css"></style></defs><path d="M232.192 318.464H614.4a39.936 39.936 0 0 0 39.2704-39.8336c0-21.7088-17.8176-36.1984-39.2704-36.1984H232.192a39.936 39.936 0 0 0-39.3216 39.7824c0 21.7088 17.92 36.1984 39.3216 36.1984z m0 217.088H453.632a39.936 39.936 0 0 0 39.3216-39.8336c0-21.7088-17.8688-36.1984-39.3216-36.1984H228.608a39.936 39.936 0 0 0-39.2704 39.8336c0 21.7088 21.4016 36.1472 42.8544 36.1472z m146.432 122.9824h-150.016a39.936 39.936 0 0 0-39.2704 39.8336 39.936 39.936 0 0 0 39.2704 39.7824h150.016a39.936 39.936 0 0 0 39.3216-39.7824 39.936 39.936 0 0 0-39.3216-39.8336z m467.968-249.6512V39.7824A39.936 39.936 0 0 0 807.2704 0h-768C17.92 0 0 14.4896 0 39.7824v919.04a39.936 39.936 0 0 0 39.2704 39.8336H617.984c3.584 0 10.752-3.584 17.8688-3.584A304.8448 304.8448 0 0 0 764.416 1024c171.52 0 310.784-141.1072 310.784-314.7776-3.584-141.1584-99.9936-264.192-228.608-300.3392zM75.008 922.624V75.9808H771.584v322.048h-10.752c-171.4176 0-310.784 141.1072-310.784 314.7776 0 83.2512 32.2048 155.648 82.176 209.92h-457.216z m685.824 25.344c-128.5632 0-235.7248-108.544-235.7248-238.7968 0-130.304 107.1616-238.848 235.7248-238.848 128.6144 0 235.776 108.544 235.776 238.848 0 130.2528-103.5776 238.7968-235.776 238.7968z m157.184-372.736c-17.8688-10.8032-39.2704-10.8032-53.5552 3.6352l-146.432 184.576-67.8912-68.7616a38.5024 38.5024 0 0 0-53.6064 0 39.7312 39.7312 0 0 0 0 54.272l100.0448 101.3248c7.168 7.2192 17.8176 10.8544 24.9856 10.8544h3.584c10.752 0 21.4016-3.584 24.9856-14.4896L921.6 629.6064c14.336-18.1248 14.336-43.4176-3.584-54.272z" p-id="14536"></path></svg>