<?xml version="1.0" standalone="no"?><!DOCTYPE svg PUBLIC "-//W3C//DTD SVG 1.1//EN" "http://www.w3.org/Graphics/SVG/1.1/DTD/svg11.dtd"><svg t="1591936477616" class="icon" viewBox="0 0 1024 1024" version="1.1" xmlns="http://www.w3.org/2000/svg" p-id="1918" xmlns:xlink="http://www.w3.org/1999/xlink" width="84" height="84"><defs><style type="text/css"></style></defs><path d="M353.52381 457.874286c-16.091429 0-26.819048-11.215238-26.819048-26.819048s11.215238-26.819048 26.819048-26.819048H653.409524c16.091429 0 26.819048 11.215238 26.819047 26.819048s-11.215238 26.819048-26.819047 26.819048H353.52381z" fill="" p-id="1919"></path><path d="M186.270476 938.666667c-63.878095 0-115.565714-51.687619-115.565714-115.565715V338.407619c0-36.08381 18.041905-71.192381 48.274286-96.060952C74.605714 221.379048 47.299048 178.468571 48.761905 131.657143c1.950476-61.44 54.613333-111.664762 117.51619-111.664762h674.377143c33.158095 0 65.340952 14.140952 87.771429 38.521905 21.942857 23.893333 32.670476 54.613333 29.744762 86.79619-3.900952 43.885714-31.207619 81.92-69.241905 97.52381 28.769524 23.405714 47.786667 57.539048 52.175238 94.110476v275.504762c0 7.314286-2.925714 14.628571-8.289524 19.504762-4.87619 4.388571-11.702857 7.314286-18.529524 7.314285-7.314286 0-14.140952-2.925714-19.504762-8.777142l-0.487619-0.487619c-4.388571-4.87619-7.314286-11.215238-7.314285-18.041905v-273.066667c0-34.133333-27.794286-61.44-61.44-61.44H186.270476c-34.133333 0-61.44 27.794286-61.44 61.44v484.693333c0 34.133333 27.794286 61.44 61.44 61.44h372.540953c8.289524 0 15.60381 3.413333 20.967619 9.752381 6.826667 8.289524 7.801905 19.017143 3.413333 28.769524-4.388571 9.264762-13.653333 15.60381-24.380952 15.60381H186.270476zM163.84 78.506667C131.169524 78.506667 102.4 107.27619 102.4 139.946667c0 32.670476 28.769524 61.44 61.44 61.44H843.580952c39.497143 0 61.927619-31.695238 65.828572-61.44 0-32.670476-28.769524-60.952381-61.44-60.952381H163.84z" fill="" p-id="1920"></path><path d="M789.942857 633.417143c-102.4 0-185.295238 82.895238-185.295238 185.295238s83.382857 185.295238 185.295238 185.295238 185.295238-82.895238 185.295238-185.295238-83.382857-185.295238-185.295238-185.295238z m0 326.704762c-78.019048 0-141.409524-63.390476-141.409524-141.409524s63.390476-141.409524 141.409524-141.409524 141.409524 63.390476 141.409524 141.409524c0 77.531429-63.390476 141.409524-141.409524 141.409524z" fill="" p-id="1921"></path><path d="M791.405714 856.746667c-11.702857 0-21.455238-9.752381-21.455238-21.455238v-90.209524c0-11.702857 9.752381-21.455238 21.455238-21.455238 12.190476 0 21.455238 9.752381 21.455238 21.455238v68.754285h51.687619c11.702857 0 21.455238 9.752381 21.455239 21.455239 0 11.702857-9.752381 21.455238-21.455239 21.455238h-73.142857z" fill="" p-id="1922"></path></svg>