<?xml version="1.0" standalone="no"?><!DOCTYPE svg PUBLIC "-//W3C//DTD SVG 1.1//EN" "http://www.w3.org/Graphics/SVG/1.1/DTD/svg11.dtd"><svg t="1591935921507" class="icon" viewBox="0 0 1024 1024" version="1.1" xmlns="http://www.w3.org/2000/svg" p-id="10827" xmlns:xlink="http://www.w3.org/1999/xlink" width="84" height="84"><defs><style type="text/css"></style></defs><path d="M435.2 153.6h153.6c14.1312 0 25.6-11.5712 25.6-25.6 0-14.1312-11.4688-25.6-25.6-25.6H435.2c-14.0288 0-25.6 11.4688-25.6 25.6 0 14.0288 11.5712 25.6 25.6 25.6zM332.8 204.8c14.1312 0 25.6-11.5712 25.6-25.6V76.8c0-14.1312-11.4688-25.6-25.6-25.6-14.0288 0-25.6 11.4688-25.6 25.6v102.4c0 14.0288 11.5712 25.6 25.6 25.6zM691.2 204.8c14.1312 0 25.6-11.5712 25.6-25.6V76.8c0-14.1312-11.4688-25.6-25.6-25.6-14.0288 0-25.6 11.4688-25.6 25.6v102.4c0 14.0288 11.5712 25.6 25.6 25.6z" p-id="10828"></path><path d="M870.4 102.4h-76.8c-14.1312 0-25.6 11.4688-25.6 25.6s11.4688 25.6 25.6 25.6h76.8c28.2624 0 51.2 22.9376 51.2 51.2v153.6H102.4V204.8c0-28.2624 22.9376-51.2 51.2-51.2h76.8c14.1312 0 25.6-11.4688 25.6-25.6s-11.4688-25.6-25.6-25.6h-76.8c-56.32 0-102.4 46.08-102.4 102.4v665.6c0 56.32 46.08 102.4 102.4 102.4h716.8c56.32 0 102.4-46.08 102.4-102.4V204.8c0-56.32-46.08-102.4-102.4-102.4z m0 819.2H153.6c-28.2624 0-51.2-23.04-51.2-51.2V409.6h819.2v460.8c0 28.16-22.9376 51.2-51.2 51.2z" p-id="10829"></path><path d="M742.4 563.2H281.6c-14.0288 0-25.6 11.4688-25.6 25.6 0 14.0288 11.5712 25.6 25.6 25.6h460.8c14.1312 0 25.6-11.5712 25.6-25.6 0-14.1312-11.4688-25.6-25.6-25.6zM486.4 716.8H281.6c-14.0288 0-25.6 11.4688-25.6 25.6 0 14.0288 11.5712 25.6 25.6 25.6h204.8c14.1312 0 25.6-11.5712 25.6-25.6 0-14.1312-11.4688-25.6-25.6-25.6z" p-id="10830"></path></svg>