<?xml version="1.0" standalone="no"?><!DOCTYPE svg PUBLIC "-//W3C//DTD SVG 1.1//EN" "http://www.w3.org/Graphics/SVG/1.1/DTD/svg11.dtd"><svg t="1591935088523" class="icon" viewBox="0 0 1024 1024" version="1.1" xmlns="http://www.w3.org/2000/svg" p-id="4110" xmlns:xlink="http://www.w3.org/1999/xlink" width="84" height="84"><defs><style type="text/css"></style></defs><path d="M278 897.7c0-7-5.6-12.6-12.6-12.6H125.2c-18.2 0-33-13.7-33-30.6v-670c0-16.9 14.8-30.6 33-30.6h487.4c18.2 0 33 13.7 33 30.6v170.1c0 7.5 6.1 13.6 13.6 13.6s13.6-6.1 13.6-13.6V184.5c0-30.8-27-55.8-60.2-55.8H125.2c-33.2 0-60.2 25-60.2 55.8v670c0 30.8 27 55.8 60.2 55.8h140.3c6.9 0 12.5-5.7 12.5-12.6z m84.6-307.4h-199c-0.6 0-1.1-0.5-1.1-1.1v-9.5c0-0.6 0.5-1.1 1.1-1.1h199c0.6 0 1.1 0.5 1.1 1.1v9.5c0 0.6-0.5 1.1-1.1 1.1z m5.2 123.7H163.6c-0.6 0-1.1-0.5-1.1-1.1v-9.5c0-0.6 0.5-1.1 1.1-1.1h204.2c0.6 0 1.1 0.5 1.1 1.1v9.5c0 0.6-0.5 1.1-1.1 1.1z m-2.6-371.2H163.6c-0.6 0-1.1-0.5-1.1-1.1v-9.5c0-0.6 0.5-1.1 1.1-1.1h201.5c0.6 0 1.1 0.5 1.1 1.1v9.5c0.1 0.6-0.4 1.1-1 1.1z m208.9 0H447.9c-0.6 0-1.1-0.5-1.1-1.1v-9.5c0-0.6 0.5-1.1 1.1-1.1h126.2c0.6 0 1.1 0.5 1.1 1.1v9.5c0 0.6-0.4 1.1-1.1 1.1z m-158 0h-13.3c-0.6 0-1.1-0.5-1.1-1.1v-9.5c0-0.6 0.5-1.1 1.1-1.1h13.3c0.6 0 1.1 0.5 1.1 1.1v9.5c0 0.6-0.4 1.1-1.1 1.1z m-7.7 123.7H163.6c-0.6 0-1.1-0.5-1.1-1.1V456c0-0.6 0.5-1.1 1.1-1.1h244.8c0.6 0 1.1 0.5 1.1 1.1v9.5c0 0.5-0.5 1-1.1 1zM679.7 64.2H350.3c-7 0-12.6 5.6-12.6 12.6s5.6 12.6 12.6 12.6h329.4c18.2 0 33 13.7 33 30.6v179.9c0 7.1 5.1 13.6 12.2 14.3 8.1 0.8 15-5.6 15-13.5V120c0-30.7-27-55.8-60.2-55.8z m207.6 497.4H717.9c-10.4 0-18.8-7.1-18.8-15.8 0-8.7 8.4-15.8 18.8-15.8h169.5c10.4 0 18.8 7.1 18.8 15.8 0 8.7-8.5 15.8-18.9 15.8z m0 60.3H717.9c-10.4 0-18.8-7.1-18.8-15.8 0-8.7 8.4-15.8 18.8-15.8h169.5c10.4 0 18.8 7.1 18.8 15.8 0 8.7-8.5 15.8-18.9 15.8z m0 213.8H717.9c-10.4 0-18.8-7.1-18.8-15.8 0-8.7 8.4-15.8 18.8-15.8h169.5c10.4 0 18.8 7.1 18.8 15.8 0 8.7-8.5 15.8-18.9 15.8z m0 60.3H717.9c-10.4 0-18.8-7.1-18.8-15.8 0-8.7 8.4-15.8 18.8-15.8h169.5c10.4 0 18.8 7.1 18.8 15.8 0 8.7-8.5 15.8-18.9 15.8zM586.1 699.4h-113c-31.1 0-56.5-25.3-56.5-56.5v-113c0-31.1 25.3-56.5 56.5-56.5h113c31.1 0 56.5 25.3 56.5 56.5v113c0 31.1-25.4 56.5-56.5 56.5zM463.5 498.3c-12.1 0-22 9.9-22 22v132.2c0 12.1 9.9 22 22 22h132.2c12.1 0 22-9.9 22-22V520.3c0-12.1-9.9-22-22-22H463.5zM586.1 963h-113c-31.1 0-56.5-25.3-56.5-56.5v-113c0-31.1 25.3-56.5 56.5-56.5h113c31.1 0 56.5 25.3 56.5 56.5v113c0 31.1-25.4 56.5-56.5 56.5zM463.5 761.9c-12.1 0-22 9.9-22 22v132.2c0 12.2 9.9 22 22 22h132.2c12.1 0 22-9.9 22-22V783.9c0-12.2-9.9-22-22-22H463.5z m9.6 12.8" p-id="4111"></path></svg>