<?xml version="1.0" standalone="no"?><!DOCTYPE svg PUBLIC "-//W3C//DTD SVG 1.1//EN" "http://www.w3.org/Graphics/SVG/1.1/DTD/svg11.dtd"><svg t="1591936781750" class="icon" viewBox="0 0 1024 1024" version="1.1" xmlns="http://www.w3.org/2000/svg" p-id="1847" xmlns:xlink="http://www.w3.org/1999/xlink" width="84" height="84"><defs><style type="text/css"></style></defs><path d="M983.17199947 799.93844411s-91.61677771 19.63216668-183.23355536 35.99230549L675.60138869 973.35591614l-130.88111094-225.76991644h-45.80838883l-130.88111097 225.76991644s-62.1685277-68.71258326-121.06502768-137.42516654c-91.61677771-19.63216668-183.23355533-35.9923055-183.23355533-35.99230549l143.96922206-245.40208305c-22.90419443-45.80838883-35.9923055-98.16083323-35.99230551-153.78530537 0-193.04963862 157.05733313-346.83494401 353.37899959-346.83494404s353.37899958 153.78530541 353.37899962 346.83494404c0 55.62447214-13.08811108 107.97691655-35.99230552 153.78530537l140.69719429 245.40208305z m-297.75452746 68.71258327s42.53636106-42.53636106 85.07272213-81.80069437l117.79299988-32.72027772-81.80069436-140.69719428c-49.08041659 62.1685277-117.79299989 107.97691655-196.32166643 127.60908315l75.25663878 127.60908322z m-526.79647159-114.52097209l117.79299988 32.72027772c42.53636106 39.26433326 85.07272207 81.80069437 85.07272207 81.80069437l75.25663886-130.88111099c-78.52866657-19.63216668-147.24124981-65.44055546-196.32166648-127.60908316l-81.80069433 143.96922206z" p-id="1848"></path></svg>