<?xml version="1.0" standalone="no"?><!DOCTYPE svg PUBLIC "-//W3C//DTD SVG 1.1//EN" "http://www.w3.org/Graphics/SVG/1.1/DTD/svg11.dtd"><svg t="1591935808301" class="icon" viewBox="0 0 1024 1024" version="1.1" xmlns="http://www.w3.org/2000/svg" p-id="10019" xmlns:xlink="http://www.w3.org/1999/xlink" width="84" height="84"><defs><style type="text/css"></style></defs><path d="M866.036 883.827V702h-37.271v144.585c0.028 20.563 1.984 37.242-18.579 37.242H307.459V139.123h260.639v223.425h1.09c-0.643 1.341-1.117 2.767-1.117 4.275 0 2.57 1.257 4.834 2.961 6.818 0.447 1.62 5.365 4.61 6.65 5.112 11.79 4.806 21.541-0.586 21.541-0.586L671.5 317.54l73.534 60.627s16.204 11.315 23.86-0.28c2.486-3.772 5.531-14.277 4.191-20.759V139.123h37.074c20.562 0 18.606 16.679 18.606 37.242V384h37.271V139.123c0-20.562-16.708-37.242-37.242-37.242h-633.06c-20.563 0-37.215 16.68-37.215 37.242v744.704H65.063v37.242h894.064v-37.242h-93.091zM605.313 139.123h130.556v182.774L673.036 270.1l-1.565-1.565-0.195 0.14-0.167-0.14-1.705 1.733-64.091 53.753V139.123zM270.216 883.827h-55.849c-20.591 0-18.635-16.679-18.635-37.242V176.366c0-20.59-1.956-37.242 18.635-37.242h55.849v744.703z" fill="" p-id="10020"></path><path d="M828.765 422.333h37.271v245.5h-37.271z" fill="" p-id="10021"></path><path d="M715.882 523.066h245.5v37.271h-245.5z" fill="" p-id="10022"></path></svg>