<?xml version="1.0" standalone="no"?><!DOCTYPE svg PUBLIC "-//W3C//DTD SVG 1.1//EN" "http://www.w3.org/Graphics/SVG/1.1/DTD/svg11.dtd"><svg t="1592109421778" class="icon" viewBox="0 0 1024 1024" version="1.1" xmlns="http://www.w3.org/2000/svg" p-id="3200" xmlns:xlink="http://www.w3.org/1999/xlink" width="84" height="84"><defs><style type="text/css"></style></defs><path d="M398.05583 1023.744H57.02183A58.865 58.865 0 0 1 0.01083 963.791V601.578a61.873 61.873 0 0 1 16.828-42.486 55.154 55.154 0 0 1 40.757-17.595h169.942v-180.18l284.345-180.626V0H739.41083v120.418H568.70083v95.976l227.656 144.604v180.819h170.453a58.993 58.993 0 0 1 57.01 59.505v362.213a61.68 61.68 0 0 1-16.7 42.55 54.962 54.962 0 0 1-40.31 17.403H625.58283V783.036a117.219 117.219 0 0 0-113.7-120.674 117.219 117.219 0 0 0-113.827 120.674V1024z m0 0" p-id="3201"></path></svg>