<?xml version="1.0" standalone="no"?><!DOCTYPE svg PUBLIC "-//W3C//DTD SVG 1.1//EN" "http://www.w3.org/Graphics/SVG/1.1/DTD/svg11.dtd"><svg t="1591936415659" class="icon" viewBox="0 0 1303 1024" version="1.1" xmlns="http://www.w3.org/2000/svg" p-id="1146" xmlns:xlink="http://www.w3.org/1999/xlink" width="106.88671875" height="84"><defs><style type="text/css"></style></defs><path d="M1020.872145 244.382255h45.521455c3.332655 0 12.101818 4.170473 14.242909 6.925963L1280.6144 501.573818c1.266036 1.489455 4.040145 9.309091 4.040145 11.357091v305.673309a56.971636 56.971636 0 0 1-16.756363 40.252509 57.288145 57.288145 0 0 1-40.475927 16.681891h-69.33411c-8.527127 70.488436-66.857891 124.816291-137.216 129.619782v-36.528873c56.841309-5.12 101.804218-53.248 101.804219-111.113309 0-58.032873-44.888436-105.844364-101.804219-110.964363v-36.77091c70.283636 4.896582 128.372364 58.9824 137.141528 129.13571h69.408582c5.771636 0 10.910255-2.196945 14.615272-5.901964 3.649164-3.760873 6.013673-8.825018 6.013673-14.559418V596.992H1020.872145v-36.4544h227.179055v-41.499927l-101.5808-127.236655h-125.598255v-36.398545h96.442182l-59.764363-74.640291h-36.677819v-36.379927zM430.303418 53.248a279.905745 279.905745 0 0 1 61.570327 46.377891c8.936727 8.899491 17.165964 18.264436 24.818037 28.187927h203.478109c20.163491 0 38.651345 8.266473 51.851636 21.410909v0.093091a72.275782 72.275782 0 0 1 21.597091 51.646837v43.324509h227.253527v36.4544H793.6v558.135854h69.892655c9.160145-73.467345 72.629527-129.452218 147.34429-129.452218 3.314036 0 6.5536 0.074473 10.0352 0.242036v36.696437a86.611782 86.611782 0 0 0-10.053818-0.633018c-61.402764 0-111.913891 50.324945-111.913891 111.50429 0 61.346909 50.343564 111.504291 111.932509 111.504291 3.314036 0 6.628073-0.074473 10.0352-0.484072v36.621963c-3.4816 0.167564-6.721164 0.316509-10.053818 0.316509-74.696145 0-138.407564-56.375855-147.493236-129.8432H493.065309a147.791127 147.791127 0 0 1-62.761891 103.386764v-48.593455a110.778182 110.778182 0 0 0 0-145.594181v-48.500364a147.325673 147.325673 0 0 1 62.594327 102.828218h264.024437V201.076364c0-10.165527-4.189091-19.307055-10.910255-25.990982v0.074473a35.877236 35.877236 0 0 0-25.842036-10.798546h-179.833018a275.009164 275.009164 0 0 1-48.388655 325.780946 279.645091 279.645091 0 0 1-61.570327 46.470981V493.754182c12.809309-8.657455 24.818036-18.432 35.746909-29.453964a238.685091 238.685091 0 0 0 70.562909-169.388218c0-66.057309-26.940509-125.989236-70.656-169.462691v-0.148945a251.308218 251.308218 0 0 0-35.746909-29.453964V53.266618z m590.568727 302.228945h-43.008c-32.321164 0-58.889309 26.456436-58.889309 58.647273v124.667346c0 31.818473 26.475055 58.181818 58.274909 58.181818h43.6224v-36.4544h-43.641018a21.876364 21.876364 0 0 1-21.652945-21.652946v-124.741818c0-12.101818 10.277236-22.267345 22.360436-22.267345h42.933527v-36.379928zM295.991855 18.618182c48.612073 0 94.468655 12.604509 134.311563 34.722909v42.5984a240.397964 240.397964 0 0 0-134.311563-40.866909c-15.006255 0-29.789091 1.340509-44.106473 4.021527V22.081164A281.134545 281.134545 0 0 1 296.029091 18.618182z m134.311563 960.139636c-24.203636 16.774982-53.359709 26.624-84.675491 26.624a147.791127 147.791127 0 0 1-93.649454-33.3824v-53.8624a111.932509 111.932509 0 0 0 93.649454 50.7904 111.597382 111.597382 0 0 0 84.675491-38.744436v48.593454z m0-485.003636v42.691491a275.642182 275.642182 0 0 1-134.311563 34.648436 281.134545 281.134545 0 0 1-44.106473-3.462982V530.618182a240.658618 240.658618 0 0 0 178.418036-36.864z m0 242.315636v48.593455a111.671855 111.671855 0 0 0-84.675491-38.837528 112.193164 112.193164 0 0 0-93.649454 50.957964v-53.8624a147.977309 147.977309 0 0 1 93.649454-33.3824c31.315782 0 60.471855 9.8304 84.675491 26.530909z m-170.114327-315.336145a24.650473 24.650473 0 0 1-17.445236-7.689309L157.882182 323.658473a24.538764 24.538764 0 0 1 0.968145-34.797382 24.762182 24.762182 0 0 1 34.927709 0.968145l70.004364 73.746619 144.123345-135.614837a24.818036 24.818036 0 0 1 34.964946 0.968146l3.407127 3.574691c9.383564 9.867636 8.936727 25.451055-0.986763 34.797381l-158.124219 148.796509c-7.447273 7.000436-18.152727 8.508509-26.996363 4.654546z m-8.229236 551.265745a147.642182 147.642182 0 0 1-53.6576-96.628363H140.511418c-40.401455 0-73.430109-33.065891-73.430109-73.3184V450.466909A273.650036 273.650036 0 0 1 18.618182 294.856145c0-76.055273 31.148218-145.221818 81.342836-195.304727a278.900364 278.900364 0 0 1 151.998837-77.544727v37.087418a241.012364 241.012364 0 0 0-126.1568 66.299346 238.982982 238.982982 0 0 0-70.581528 169.46269c0 65.982836 26.959127 125.989236 70.656 169.388219h-0.148945a240.453818 240.453818 0 0 0 126.1568 66.299345v36.919855a275.567709 275.567709 0 0 1-148.293818-74.007273v308.689454a36.864 36.864 0 0 0 36.845381 36.77091h57.86531a147.6608 147.6608 0 0 1 53.583127-96.069819V796.858182a109.102545 109.102545 0 0 0-18.171346 60.564945c0 22.434909 6.628073 43.380364 18.171346 60.788364l0.074473 53.787927z" p-id="1147"></path></svg>