<?xml version="1.0" standalone="no"?><!DOCTYPE svg PUBLIC "-//W3C//DTD SVG 1.1//EN" "http://www.w3.org/Graphics/SVG/1.1/DTD/svg11.dtd"><svg t="1591936978822" class="icon" viewBox="0 0 1024 1024" version="1.1" xmlns="http://www.w3.org/2000/svg" p-id="3877" xmlns:xlink="http://www.w3.org/1999/xlink" width="84" height="84"><defs><style type="text/css"></style></defs><path d="M25.6 102.4v716.8h972.8V102.4H25.6z m279.1424 458.7008v20.992H165.376V339.5072h52.4288v200.704h86.9376v20.8384z m81.8688 20.992H334.1312V339.5072h52.48v242.4832z m183.3472 0h-42.1376L416.9216 339.5072h55.296l76.5952 184.9856 76.5952-184.9856h55.296l-110.7456 242.4832z m288.6656-221.696v20.9408h-100.1984v59.6992h95.5392v41.7792h-95.5392v57.4464h100.1984v41.7792h-152.6784V339.5584h152.6784v20.7872z" fill="#666666" p-id="3878"></path><path d="M486.4 768h51.2v153.6h-51.2z" fill="#666666" p-id="3879"></path><path d="M332.8 870.4h358.4v51.2h-358.4z" fill="#666666" p-id="3880"></path></svg>