<?xml version="1.0" standalone="no"?><!DOCTYPE svg PUBLIC "-//W3C//DTD SVG 1.1//EN" "http://www.w3.org/Graphics/SVG/1.1/DTD/svg11.dtd"><svg t="1591935530321" class="icon" viewBox="0 0 1024 1024" version="1.1" xmlns="http://www.w3.org/2000/svg" p-id="6369" xmlns:xlink="http://www.w3.org/1999/xlink" width="84" height="84"><defs><style type="text/css"></style></defs><path d="M616 762.6C722.9 505.2 743.3 310.9 674.3 186c-7.1-12.9-14.9-24.4-23-34.7C735.5 179.9 831.1 240 831.1 365 831 576.3 670.5 715.8 616 762.6z m-104.2 6.1h-38.9c-136.7-315.4-116-475-73.5-553.1 37.4-68.8 96.3-86.1 112.4-89.6 15.3 3.3 74 20.2 111.7 88.4 43.1 78.1 64.5 237.7-72.7 554.4h-39zM193.6 364.9c0-124.6 94.8-184.7 178.7-213.4-8.1 10.2-15.7 21.6-22.8 34.4-69 124.7-48.7 318.5 57.6 575-56.7-48.5-213.5-187.3-213.5-396zM511.8 67s-376.4 1.8-376.4 297.9c0 296.1 260.2 462.3 260.2 462.3H629.2s259.3-166.3 259.3-462.3S511.8 67 511.8 67zM386.5 922.8c0-18.9 15.4-34.2 34.2-34.2h203.8c18.9 0 34.2 15.2 34.2 34.2 0 18.9-15.4 34.2-34.2 34.2H420.7c-18.9 0-34.2-15.2-34.2-34.2z" p-id="6370"></path></svg>